<svg id="Layer_1" data-name="Layer 1" xmlns="http://www.w3.org/2000/svg" viewBox="0 0 779.47 92.38"><defs><style>.cls-1{fill:#231f20;}.cls-2{fill:#d9272e;}</style></defs><title>poweredby</title><path class="cls-1" d="M6.44,281.8h8.14a46.76,46.76,0,0,1,9.45.62A10.47,10.47,0,0,1,29.75,286a11.46,11.46,0,0,1,.06,13.48,10.69,10.69,0,0,1-6,3.57,52.8,52.8,0,0,1-10.39.67H10.52v19H6.44V281.8Zm4.08,4v13.87l6.92,0.09a18.18,18.18,0,0,0,6.14-.77,6.3,6.3,0,0,0,3-2.47,6.83,6.83,0,0,0,1.11-3.81,6.74,6.74,0,0,0-1.11-3.76,6.15,6.15,0,0,0-2.93-2.43,17.65,17.65,0,0,0-6-.72H10.52Z" transform="translate(-6.44 -259.32)"/><path class="cls-1" d="M65.3,280.77A21.22,21.22,0,0,1,80.84,287a21.48,21.48,0,0,1-15.21,36.72,20.9,20.9,0,0,1-15.35-6.22A20.44,20.44,0,0,1,44,302.42a21.77,21.77,0,0,1,2.85-10.92A21,21,0,0,1,65.3,280.77Zm0.18,4a17.41,17.41,0,0,0-14.94,8.73,17.65,17.65,0,0,0-2.28,8.92,17.19,17.19,0,0,0,17.22,17.32,17.52,17.52,0,0,0,8.81-2.31,16.53,16.53,0,0,0,6.32-6.31,17.72,17.72,0,0,0,2.27-8.9,17.3,17.3,0,0,0-2.27-8.8,17,17,0,0,0-6.39-6.3A17.27,17.27,0,0,0,65.48,284.75Z" transform="translate(-6.44 -259.32)"/><path class="cls-1" d="M98.67,281.8h4.2l8.35,29.45,11.71-29.45h0.85l11.58,29.45,8.5-29.45H148l-11.74,40.87H135.5l-12.13-30.92L111,322.67h-0.76Z" transform="translate(-6.44 -259.32)"/><path class="cls-1" d="M161.31,281.8h23.42v4H165.4v12.81h19.16v4H165.4v16.06h19.16v4H161.31V281.8Z" transform="translate(-6.44 -259.32)"/><path class="cls-1" d="M197.7,281.8h8.14a49.21,49.21,0,0,1,9.22.56,10.51,10.51,0,0,1,5.91,3.57,10.19,10.19,0,0,1,2.28,6.74,10.88,10.88,0,0,1-1.57,5.87,9.73,9.73,0,0,1-4.49,3.82,20.43,20.43,0,0,1-8.05,1.32l14.69,19h-5.05l-14.7-19h-2.31v19H197.7V281.8Zm4.08,4v13.89l7,0.06a17.53,17.53,0,0,0,6.06-.78,6.31,6.31,0,0,0,3.06-2.49,6.91,6.91,0,0,0,1.11-3.82,6.62,6.62,0,0,0-1.12-3.74,6.18,6.18,0,0,0-2.92-2.4,17.72,17.72,0,0,0-6-.73h-7.2Z" transform="translate(-6.44 -259.32)"/><path class="cls-1" d="M237.73,281.8h23.42v4H241.82v12.81H261v4H241.82v16.06H261v4H237.73V281.8Z" transform="translate(-6.44 -259.32)"/><path class="cls-1" d="M273.9,322.67V281.8h8.47q9.17,0,13.31,1.48A17.82,17.82,0,0,1,305,290.5a22,22,0,0,1,3.35,12.25,21.45,21.45,0,0,1-2.65,10.8,17,17,0,0,1-6.89,6.89q-4.23,2.22-11.87,2.22h-13Zm3.91-3.86h4.72q8.47,0,11.75-1a13.57,13.57,0,0,0,7.25-5.4,16.61,16.61,0,0,0,2.64-9.53,17.49,17.49,0,0,0-2.86-10.11,14.42,14.42,0,0,0-8-5.75q-3.83-1.16-12.64-1.17h-2.89v33Z" transform="translate(-6.44 -259.32)"/><path class="cls-1" d="M343.48,281.8h8.05A19.19,19.19,0,0,1,359,283a9.15,9.15,0,0,1,4.12,3.54,9.69,9.69,0,0,1,1.51,5.3,9.56,9.56,0,0,1-1.32,5,9.87,9.87,0,0,1-3.9,3.62,15,15,0,0,1,4.9,2.54,10.09,10.09,0,0,1,2.67,3.53,10.61,10.61,0,0,1,1,4.49,11,11,0,0,1-3.6,8.32q-3.59,3.4-9.65,3.4H343.48V281.8Zm4,4v13.09h2.33a18.38,18.38,0,0,0,6.27-.79,6.79,6.79,0,0,0,3.17-2.5,6.58,6.58,0,0,0,1.17-3.8,5.39,5.39,0,0,0-2-4.4q-2-1.59-6.25-1.6h-4.73Zm0,17.2v15.67h5.06a18.11,18.11,0,0,0,6.57-.88,7.46,7.46,0,0,0,3.35-2.73,7.15,7.15,0,0,0-.51-8.78,9.18,9.18,0,0,0-4.9-2.78,35.8,35.8,0,0,0-7.27-.5h-2.31Z" transform="translate(-6.44 -259.32)"/><path class="cls-1" d="M378.5,281.8h4.7l10.45,16.86,10.3-16.86h4.72l-12.94,21.34v19.53h-4V303.13Z" transform="translate(-6.44 -259.32)"/><path class="cls-2" d="M707.61,343.14q7.25,0.55,14.48,1.2v-85H707.61v83.82ZM474.69,311.6l-18.86-52.27H442.07V351.7q7.23-1,14.48-2V299.5l16.77,48.17q7.91-.92,15.85-1.74v-86.6H474.69V311.6Zm28.4,33q20-1.82,40.22-3V327.33q-12.91.75-25.74,1.76v-21.6c5.61-.06,13-0.23,19.55-0.15V293.08c-5.23,0-13.64.07-19.55,0.15v-19.5h25.74v-14.4H503.09v85.26Zm49.5-70.86h15.15v66.72q7.23-.27,14.48-0.46V273.72h15.15V259.33H552.59v14.39Zm54.07,65.87h14.48V306.65h19.63V292.38H621.14V273.72h25.94v-14.4H606.66v80.26Zm179.25-80.26H770l-10.48,24.3-9.42-24.3H734.44l16.83,43.42-18.38,42.6q7.63,0.74,15.22,1.58l10.69-24.77,10.59,27.3q8.27,1.06,16.5,2.23h0L767,303Zm-115.07,0H656.36v81q19.74,0.68,39.31,2V328q-12.38-.83-24.83-1.4V259.32Z" transform="translate(-6.44 -259.32)"/></svg>